<svg xmlns="http://www.w3.org/2000/svg" viewBox="0 0 4319.99 342">
	<title>Flywheel Co.</title>
	<path d="M196,76H89v57h97v75H89V342H0V1H196Z"/>
	<path d="M508,0V267H615v75H419V0Z"/>
	<path d="M886,177.82,759.76,0H866.45l64,93.06L994.61,0h106.62L975,177.82V342H886Z"/>
	<path d="M1357.57,0,1417,221h.86L1489.58,0h70.84l67.14,221h.84L1692.83,0h92.32L1675.84,342h-90.55l-59.9-198h-.86l-67,198h-90.21l-102-342Z"/>
	<path d="M2059,132h128V0h89V342h-89V202H2059V342h-89V0h89Z"/>
	<path d="M2692,76H2587v57h100v75H2587v59h105v75H2498V1h194Z"/>
	<path d="M3115,76H3010v57h100v75H3010v59h105v75H2921V1h194Z"/>
	<path d="M3440,0V267h106v75H3351V0Z"/>
	<path d="M3969,94.65v50.62q-13.15-17.9-37-17.87-19.18,0-31.22,12.91t-12.07,32.07q0,19.4,12.17,31.78t31.76,12.39q22,0,36.4-17.25v50.61q-24.55,7.56-37.26,7.55-34.7,0-60.83-23.8t-26.16-61.49q0-34.87,23.89-59.44,25.64-26.25,61.81-26.26,18.71,0,38.51,8.18Z"/>
	<path d="M4123.4,85.4q36.17,0,62.44,23.27,27.38,24.33,27.34,60.27,0,39.42-25.27,64.5t-64.51,25.09q-39.21,0-64.5-25.09t-25.31-64.5q0-35.94,27.35-60.27Q4087.23,85.38,4123.4,85.4Zm0,40.92a45.16,45.16,0,0,0-32.29,12.91q-13.58,12.95-13.58,29.92,0,20.7,13.36,34.58a45,45,0,0,0,63.62,1.37c.47-.44.93-.9,1.38-1.37q13.36-13.9,13.36-34.58,0-17-13.57-29.92A45.28,45.28,0,0,0,4123.4,126.32Z"/>
	<path d="M4294.8,207.06a25.2,25.2,0,0,1,0,50.4,24,24,0,0,1-17.86-7.45,25.14,25.14,0,0,1,17.86-42.95Z"/>
</svg>